#define skelton_width 100
#define skelton_height 100
static char skelton_bits[] = {
   0x00, 0x00, 0x00, 0x00, 0x00, 0x00, 0x00, 0x00, 0x00, 0x00, 0x00, 0x00,
   0x00, 0x00, 0x00, 0x00, 0x01, 0x00, 0x00, 0x00, 0x00, 0x00, 0x00, 0x00,
   0x00, 0x00, 0x00, 0x00, 0x60, 0x06, 0x00, 0x00, 0x00, 0x00, 0x00, 0x00,
   0x00, 0x00, 0x00, 0x00, 0x00, 0xc0, 0x04, 0x00, 0x00, 0x00, 0x00, 0x00,
   0x00, 0x00, 0x00, 0x00, 0x00, 0x00, 0x80, 0x31, 0x00, 0x00, 0x00, 0xe0,
   0x3f, 0x00, 0x00, 0x00, 0x00, 0x00, 0x00, 0x00, 0x6c, 0x1c, 0x00, 0x00,
   0x1c, 0xc0, 0x01, 0x00, 0x00, 0x00, 0x00, 0x00, 0x00, 0x42, 0x06, 0x00,
   0x00, 0x03, 0x00, 0x06, 0x00, 0x00, 0x00, 0x00, 0x00, 0x00, 0x42, 0x00,
   0x00, 0xc0, 0x00, 0x00, 0x18, 0x00, 0x00, 0x00, 0x00, 0x00, 0x00, 0x46,
   0x00, 0x00, 0x20, 0x00, 0x00, 0x20, 0x00, 0x00, 0x00, 0x00, 0x00, 0x00,
   0x38, 0x00, 0x00, 0x18, 0x00, 0x00, 0xc0, 0x00, 0x00, 0x00, 0x00, 0x00,
   0x00, 0x00, 0x00, 0x00, 0x04, 0x00, 0x00, 0x00, 0x01, 0x00, 0x00, 0x00,
   0x00, 0x00, 0x0f, 0x00, 0x00, 0x04, 0x00, 0x00, 0x00, 0x01, 0x00, 0x00,
   0x00, 0x00, 0x00, 0x11, 0x00, 0x00, 0x02, 0x00, 0x00, 0x00, 0x02, 0x00,
   0x00, 0x00, 0x00, 0x80, 0x11, 0x00, 0x00, 0x01, 0x00, 0x00, 0x00, 0x04,
   0x00, 0x00, 0x00, 0x00, 0x60, 0x10, 0x00, 0x00, 0x01, 0x00, 0x00, 0x00,
   0x04, 0x00, 0x00, 0x00, 0x00, 0x18, 0x10, 0x00, 0x80, 0x00, 0x00, 0x00,
   0x00, 0x08, 0x00, 0x00, 0x00, 0x00, 0x08, 0x08, 0x00, 0x80, 0x00, 0x00,
   0x00, 0x00, 0x08, 0x00, 0x00, 0x00, 0x00, 0x04, 0x06, 0x00, 0x40, 0x00,
   0x00, 0x00, 0x00, 0x10, 0x00, 0x00, 0x00, 0x00, 0xc3, 0x01, 0x00, 0x40,
   0x00, 0x00, 0x00, 0x00, 0x10, 0x00, 0x00, 0x00, 0x80, 0xe1, 0x00, 0x00,
   0x40, 0x00, 0x00, 0x00, 0x00, 0x10, 0x00, 0x00, 0x00, 0x60, 0x30, 0x00,
   0x00, 0x20, 0x00, 0x00, 0x00, 0x00, 0x20, 0x00, 0x00, 0x00, 0x20, 0x08,
   0x00, 0x00, 0x20, 0x80, 0x0f, 0x00, 0x1f, 0x20, 0x00, 0x00, 0x00, 0x18,
   0x04, 0x00, 0x00, 0x20, 0xe0, 0x3f, 0xc0, 0x7f, 0x20, 0x00, 0x00, 0x00,
   0x08, 0x03, 0x00, 0x00, 0x20, 0xf0, 0x7f, 0xe0, 0xff, 0x20, 0x00, 0x00,
   0x00, 0x8c, 0x01, 0x00, 0x00, 0x20, 0xf0, 0x7f, 0xe0, 0xff, 0x20, 0x00,
   0x00, 0x00, 0xc4, 0x00, 0x00, 0x00, 0x20, 0xf8, 0xff, 0xf0, 0xff, 0x21,
   0x00, 0x00, 0x00, 0x44, 0x00, 0x00, 0x00, 0x20, 0xf8, 0xff, 0xf0, 0xff,
   0x21, 0x00, 0x00, 0x00, 0x42, 0x00, 0x00, 0x00, 0x20, 0xf8, 0xff, 0xf0,
   0xff, 0x21, 0x00, 0x00, 0x00, 0x42, 0x00, 0x00, 0x00, 0x20, 0xf8, 0xff,
   0xf0, 0xff, 0x21, 0x00, 0x00, 0x00, 0x42, 0x00, 0x00, 0x00, 0x40, 0xf8,
   0xff, 0xf0, 0xff, 0x11, 0x00, 0x00, 0x00, 0x22, 0x00, 0x00, 0x18, 0x40,
   0xf0, 0x7f, 0xe0, 0xff, 0x10, 0x00, 0x00, 0x00, 0xfc, 0x07, 0x00, 0x37,
   0x40, 0xf0, 0x7f, 0xe0, 0xff, 0x10, 0x00, 0x00, 0x00, 0x04, 0x1c, 0x80,
   0x61, 0x80, 0xe0, 0x3f, 0xc0, 0x7f, 0x08, 0x00, 0x00, 0x00, 0x04, 0xe0,
   0x80, 0xc0, 0x80, 0x80, 0x0f, 0x00, 0x1f, 0x08, 0x00, 0x00, 0x00, 0x04,
   0x00, 0x41, 0x80, 0x01, 0x01, 0x00, 0x00, 0x00, 0x04, 0x00, 0x00, 0x00,
   0xf8, 0x07, 0x27, 0x00, 0x01, 0x01, 0x00, 0x00, 0x00, 0x04, 0x00, 0x00,
   0x00, 0x00, 0x18, 0x38, 0x00, 0x02, 0x02, 0x00, 0x00, 0x00, 0x02, 0x00,
   0x00, 0x00, 0x00, 0x60, 0x60, 0x00, 0x02, 0x04, 0x00, 0x00, 0x00, 0x01,
   0x00, 0x00, 0x00, 0x00, 0xc0, 0x40, 0xfe, 0x06, 0x04, 0x00, 0x00, 0x00,
   0x01, 0x00, 0x00, 0x00, 0x00, 0x80, 0xc3, 0x01, 0x03, 0x18, 0x00, 0x00,
   0xc0, 0x00, 0x00, 0x00, 0x00, 0x00, 0x00, 0xbc, 0x00, 0x04, 0x24, 0x00,
   0x00, 0x20, 0x00, 0x00, 0x00, 0x00, 0x00, 0x00, 0x98, 0x10, 0x18, 0xde,
   0x00, 0x00, 0x18, 0x00, 0x00, 0x00, 0x00, 0x00, 0x00, 0x88, 0x10, 0x30,
   0x11, 0x03, 0x00, 0x06, 0x00, 0x00, 0x00, 0x00, 0x00, 0x00, 0x88, 0xf0,
   0x41, 0x21, 0x1c, 0xc0, 0x01, 0x00, 0x00, 0x00, 0x00, 0x00, 0x00, 0x84,
   0x10, 0x06, 0x26, 0xe0, 0x3f, 0x00, 0x00, 0x00, 0x00, 0x00, 0x00, 0x00,
   0xc4, 0x11, 0x3c, 0x34, 0x00, 0x00, 0x00, 0x00, 0x00, 0x00, 0x00, 0x00,
   0x00, 0x44, 0x11, 0x20, 0x18, 0xe0, 0x00, 0x00, 0x00, 0x00, 0x00, 0x00,
   0x00, 0x00, 0x44, 0x21, 0x00, 0x20, 0x1e, 0x01, 0x00, 0x00, 0x00, 0x00,
   0x00, 0x00, 0x00, 0x44, 0x61, 0x00, 0x40, 0x01, 0x03, 0x00, 0x00, 0x00,
   0x00, 0x00, 0x00, 0x00, 0xf8, 0xc2, 0x00, 0x80, 0x00, 0x02, 0x00, 0x00,
   0x00, 0x00, 0x00, 0x00, 0x00, 0xa0, 0x04, 0x3f, 0x80, 0x01, 0x04, 0x00,
   0xc0, 0x00, 0x00, 0x00, 0x00, 0x00, 0x90, 0x0c, 0x60, 0x0c, 0x01, 0x04,
   0xe0, 0x7f, 0x01, 0x00, 0x00, 0x00, 0x00, 0x90, 0x30, 0x40, 0x08, 0x06,
   0x04, 0x3f, 0x00, 0x01, 0x00, 0x00, 0x00, 0x00, 0x90, 0xe0, 0x40, 0x10,
   0x08, 0xf8, 0x00, 0x00, 0x01, 0x00, 0x00, 0x00, 0x00, 0x98, 0x81, 0x40,
   0x10, 0x30, 0x0f, 0x00, 0x00, 0x01, 0x00, 0x00, 0x00, 0x00, 0x1c, 0x06,
   0x40, 0xd0, 0xa3, 0x04, 0x00, 0x9f, 0x01, 0x00, 0x00, 0x00, 0x00, 0x64,
   0x0c, 0xc0, 0x3f, 0xa0, 0x00, 0xf8, 0xe1, 0x00, 0x00, 0x00, 0x00, 0x00,
   0xe4, 0x00, 0x00, 0x00, 0xa0, 0x80, 0x0f, 0x00, 0x00, 0x00, 0x00, 0x00,
   0x00, 0xa4, 0x01, 0x08, 0x00, 0x60, 0x70, 0x00, 0xe0, 0x01, 0x00, 0x00,
   0x00, 0x00, 0x2c, 0x02, 0x10, 0x00, 0xd0, 0x0e, 0x00, 0x70, 0x02, 0x00,
   0x00, 0x00, 0x00, 0x38, 0x02, 0xf0, 0x0f, 0x8c, 0x03, 0x00, 0x10, 0x02,
   0x00, 0x00, 0x00, 0x00, 0x36, 0x06, 0x01, 0xf0, 0x0f, 0x01, 0x00, 0x08,
   0x02, 0x00, 0x00, 0x00, 0x00, 0x32, 0x04, 0x02, 0x00, 0x88, 0x00, 0x00,
   0x88, 0x03, 0x00, 0x00, 0x00, 0x00, 0x02, 0x3c, 0x3c, 0x00, 0x67, 0x00,
   0x00, 0x88, 0x00, 0x00, 0x00, 0x00, 0x00, 0x22, 0xc0, 0xe1, 0x00, 0x19,
   0x00, 0x00, 0xc8, 0x00, 0x00, 0xc0, 0xff, 0x1f, 0x62, 0x00, 0x02, 0xff,
   0x00, 0x00, 0x00, 0x44, 0x00, 0x00, 0x3c, 0x00, 0xe0, 0xe4, 0x00, 0x06,
   0x30, 0x00, 0x00, 0x00, 0x24, 0x00, 0x00, 0x02, 0x00, 0x00, 0xc5, 0xfc,
   0x3f, 0x18, 0x00, 0x00, 0x00, 0x24, 0x00, 0x00, 0x02, 0x00, 0x00, 0x09,
   0x78, 0xc0, 0x0f, 0x00, 0x00, 0x00, 0x24, 0x00, 0x00, 0x86, 0xff, 0x3f,
   0x09, 0xc0, 0xc7, 0x00, 0x00, 0x00, 0x00, 0x22, 0x00, 0x00, 0x74, 0x00,
   0xe0, 0x71, 0xf8, 0x38, 0x00, 0x00, 0x00, 0x00, 0x22, 0x00, 0x00, 0x1c,
   0x00, 0x00, 0x80, 0xe3, 0x10, 0x00, 0x00, 0x00, 0x00, 0x22, 0x00, 0x00,
   0x24, 0x00, 0x00, 0x00, 0x02, 0x10, 0x00, 0x00, 0x00, 0x00, 0x23, 0x00,
   0x00, 0x44, 0x00, 0x00, 0x00, 0x0e, 0x18, 0x00, 0x00, 0x00, 0x00, 0x21,
   0x00, 0x00, 0x44, 0x00, 0x00, 0x00, 0xf0, 0xcf, 0x03, 0x00, 0x38, 0x00,
   0x21, 0x00, 0x00, 0x48, 0x00, 0x00, 0x00, 0x00, 0x40, 0x3c, 0x00, 0x2c,
   0x00, 0x21, 0x00, 0x00, 0x48, 0x00, 0x00, 0x00, 0x00, 0x40, 0xc0, 0xff,
   0x63, 0x00, 0x31, 0x00, 0x00, 0x48, 0x00, 0x00, 0x00, 0x00, 0xe0, 0x00,
   0x00, 0x40, 0x00, 0x0e, 0x00, 0x00, 0xc8, 0x00, 0x00, 0x00, 0x00, 0x80,
   0x3f, 0x00, 0x40, 0x00, 0x00, 0x00, 0x00, 0x88, 0x00, 0x00, 0x00, 0x00,
   0x00, 0xe0, 0xff, 0x3f, 0x00, 0x1f, 0x00, 0x00, 0x90, 0x01, 0x00, 0x00,
   0x00, 0x00, 0x00, 0x00, 0x00, 0x00, 0x21, 0x00, 0x00, 0x30, 0x01, 0x00,
   0x00, 0x00, 0x00, 0x00, 0x00, 0x00, 0x00, 0x61, 0x00, 0x00, 0x20, 0x03,
   0x00, 0x00, 0x00, 0x00, 0x00, 0x00, 0x00, 0xc0, 0x9e, 0x00, 0x00, 0x20,
   0x02, 0x00, 0x00, 0x00, 0x00, 0x00, 0x00, 0x00, 0x20, 0x80, 0x01, 0x00,
   0x40, 0x06, 0x00, 0x00, 0x00, 0x00, 0x00, 0x00, 0x00, 0x30, 0x20, 0x03,
   0x00, 0x40, 0x04, 0x00, 0x00, 0x00, 0x00, 0x00, 0x00, 0x00, 0x10, 0x44,
   0x02, 0x00, 0x40, 0x04, 0x00, 0x00, 0x00, 0x00, 0x00, 0x00, 0x00, 0x00,
   0x44, 0x00, 0x00, 0x40, 0x08, 0x00, 0x00, 0x00, 0x00, 0x00, 0x00, 0x00,
   0x00, 0x44, 0x00, 0x00, 0x80, 0x08, 0x00, 0x00, 0x00, 0x00, 0x00, 0x00,
   0x00, 0x00, 0x44, 0x00, 0x00, 0x80, 0x08, 0x00, 0x00, 0x00, 0x04, 0x00,
   0x00, 0x00, 0x00, 0x00, 0x00, 0x00, 0x80, 0x08, 0x00, 0x00, 0x00, 0x08,
   0xe0, 0x0f, 0x00, 0x00, 0x00, 0x00, 0x00, 0x00, 0x0d, 0x00, 0x00, 0x00,
   0x1c, 0x10, 0xf0, 0xff, 0x0f, 0x00, 0x00, 0x00, 0xc0, 0x03, 0x00, 0x00,
   0x00, 0x24, 0x10, 0x00, 0x00, 0x08, 0x00, 0x00, 0x00, 0x60, 0x0e, 0x00,
   0x00, 0x00, 0x23, 0x10, 0x00, 0x00, 0x10, 0x00, 0x00, 0x00, 0x3c, 0x08,
   0x00, 0x00, 0xc0, 0x24, 0xe0, 0xff, 0x0f, 0x0c, 0x00, 0x00, 0x00, 0x20,
   0x0c, 0x00, 0x00, 0x00, 0x3e, 0x00, 0x00, 0xf8, 0x07, 0x00, 0x00, 0x00,
   0xf8, 0x0f, 0x00, 0x00, 0x00, 0x01, 0x00, 0x00, 0x00, 0x00, 0x00, 0x00,
   0x00, 0x80, 0x18, 0x00, 0x00, 0x00, 0x00, 0x00, 0x00, 0x00, 0x00, 0x00,
   0x00, 0x00, 0x80, 0x00, 0x00, 0x00, 0x00, 0x00, 0x00, 0x00, 0x00, 0x00,
   0x00, 0x00, 0x00, 0x00, 0x00, 0x00, 0x00, 0x00, 0x00, 0x00, 0x00, 0x00,
   0x00, 0x00, 0x00, 0x00};
